<svg width="139" height="32" viewBox="0 0 139 32" fill="none" xmlns="http://www.w3.org/2000/svg"><path d="M16 0C7.19155 0 0.0241327 7.1379 0 15.9397V16.0121C0 24.838 7.19155 32 16 32C24.8326 32 32 24.8139 32 16.0121C32 7.16202 24.8326 0 16 0ZM11.994 1.51922C13.2006 1.18161 14.4796 0.988696 15.8069 0.964582C15.8793 0.964582 15.9276 0.964582 16 0.964582C16.0724 0.964582 16.1448 0.964582 16.1931 0.964582C18.2443 1.03693 20.006 2.33911 20.7541 4.12359C20.9231 4.50942 21.0196 4.89525 21.092 5.32931C21.1403 5.57046 21.1403 5.83572 21.1403 6.10098C21.1403 7.25848 20.7541 8.31952 20.1267 9.18764C19.451 8.77769 18.7029 8.4642 17.9306 8.27129C18.5339 7.74077 18.8959 6.9691 18.8959 6.10098C18.8959 5.474 18.7029 4.89525 18.3409 4.41296C17.81 3.68953 16.9653 3.20723 16 3.20723C14.3107 3.20723 12.7179 3.52072 11.2459 4.12359C10.8356 4.29239 10.4495 4.48531 10.0633 4.67822C7.79487 5.88395 5.91252 7.74077 4.70588 10.0317C3.45098 10.321 2.34087 10.9962 1.52036 11.9367C2.94419 6.89676 6.92609 2.91786 11.994 1.51922ZM22.1056 5.88395C23.7466 6.87264 25.1222 8.24717 26.1116 9.88696C26.0392 9.88696 25.9668 9.88696 25.8944 9.88696C24.543 9.88696 23.2881 10.321 22.2745 11.0927C21.8884 10.5863 21.4299 10.1281 20.9231 9.74228C21.6712 8.72947 22.1297 7.47551 22.1297 6.12509C22.1056 6.02864 22.1056 5.95629 22.1056 5.88395ZM27.5837 13.6488C27.1011 13.3112 26.5219 13.0942 25.8944 13.0942C25.0256 13.0942 24.2534 13.4559 23.7225 14.0588C23.264 14.5652 22.9985 15.2404 22.9985 15.9879C22.9985 17.2419 22.6606 18.4235 22.0814 19.4363C21.9125 19.7257 21.7436 19.991 21.5264 20.2562C21.1644 20.7385 20.73 21.1485 20.2715 21.5102C19.6923 20.9314 18.9925 20.4732 18.1961 20.1839C19.0407 19.7498 19.7406 19.0505 20.175 18.2065C20.537 17.5554 20.73 16.7837 20.73 15.9879C20.73 14.6616 21.2368 13.4559 22.0573 12.5396C22.2745 12.2984 22.5158 12.0814 22.7813 11.8644C23.6501 11.2133 24.7119 10.8515 25.8703 10.8515C26.1357 10.8515 26.4012 10.8757 26.6425 10.8998C27.0769 11.7679 27.3906 12.6842 27.5837 13.6488ZM27.825 15.8915C27.825 15.9156 27.825 15.9638 27.825 15.9879C27.825 16.0121 27.825 16.0603 27.825 16.0844C27.7768 17.0972 26.9321 17.9171 25.8944 17.9171C24.8326 17.9171 23.9638 17.049 23.9638 15.9879C23.9638 14.9269 24.8326 14.0588 25.8944 14.0588C26.9321 14.0588 27.7768 14.8787 27.825 15.8915ZM20.9231 22.2577C21.4299 21.8719 21.8884 21.4137 22.2745 20.9073C23.2881 21.6549 24.543 22.0889 25.8944 22.0889C25.9668 22.0889 26.0392 22.0889 26.1116 22.0889C25.1222 23.7287 23.7466 25.1032 22.1056 26.0919C22.1056 26.0196 22.1056 25.9473 22.1056 25.8749C22.1056 24.5245 21.6712 23.2705 20.9231 22.2577ZM17.9306 23.7287C17.4238 23.2705 16.7481 23.0053 16.0241 23.0053C14.7692 23.0053 13.5867 22.6677 12.5732 22.0889C12.2836 21.9201 12.0181 21.7513 11.7526 21.5343C11.27 21.1726 10.8356 20.7385 10.4736 20.2562C11.0528 19.6775 11.5113 18.9781 11.825 18.2065C12.2594 19.0505 12.9593 19.7498 13.8281 20.208C14.4796 20.5697 15.2519 20.7626 16.0483 20.7626C17.3756 20.7626 18.5822 21.269 19.4992 22.0889C19.7406 22.306 19.9578 22.5471 20.175 22.8124C20.8265 23.6805 21.1885 24.7415 21.1885 25.899C21.1885 26.1643 21.1644 26.4054 21.1403 26.6707C20.2715 27.0806 19.3544 27.3941 18.3891 27.587C18.727 27.1047 18.9442 26.526 18.9442 25.899C18.8959 25.0309 18.5098 24.2592 17.9306 23.7287ZM17.9306 25.899C17.9306 26.8877 17.1825 27.7076 16.2172 27.8041C16.1448 27.8041 16.0965 27.8041 16.0241 27.8041C15.9517 27.8041 15.8793 27.8041 15.8311 27.8041C14.8658 27.7076 14.1176 26.8877 14.1176 25.899C14.1176 24.838 14.9864 23.9699 16.0483 23.9699C17.0618 23.9699 17.9306 24.838 17.9306 25.899ZM9.89442 26.0919C8.25339 25.1032 6.85369 23.7046 5.86425 22.0648C5.93665 22.0648 6.03318 22.0648 6.10558 22.0648C7.45701 22.0648 8.71192 21.6307 9.70136 20.8832C10.1116 21.3896 10.5701 21.8478 11.0769 22.2577C10.3288 23.2705 9.87029 24.5245 9.87029 25.8749C9.89442 25.9714 9.89442 26.0437 9.89442 26.0919ZM6.10558 18.8576C6.95023 18.8576 7.72247 18.4959 8.25339 17.893C8.27753 17.8689 8.30166 17.8207 8.32579 17.7965C8.37406 17.7242 8.42232 17.676 8.47059 17.6036C8.49472 17.5795 8.51885 17.5313 8.51885 17.5072C8.54299 17.483 8.54299 17.4589 8.56712 17.4348C8.59125 17.3866 8.61538 17.3384 8.66365 17.2901C8.66365 17.2901 8.66365 17.2901 8.66365 17.266C8.68778 17.2419 8.68778 17.1937 8.71192 17.1696C8.73605 17.1213 8.73605 17.0972 8.76018 17.049C8.76018 17.0249 8.78431 17.0008 8.78431 16.9766C8.80845 16.9525 8.80845 16.9043 8.80845 16.8802C8.83258 16.832 8.83258 16.7596 8.85671 16.7114C8.85671 16.7114 8.85671 16.7114 8.85671 16.6873C8.85671 16.6631 8.88084 16.639 8.88084 16.5908C8.88084 16.5667 8.90498 16.5426 8.90498 16.5185V16.4943C8.90498 16.4702 8.90498 16.4461 8.90498 16.422C8.90498 16.3979 8.90498 16.3738 8.90498 16.3497C8.90498 16.3014 8.90498 16.2532 8.92911 16.205C8.92911 16.1809 8.92911 16.1567 8.92911 16.1326C8.92911 16.0844 8.92911 16.0603 8.92911 16.0121V15.9879C8.92911 14.734 9.26697 13.5524 9.84615 12.5396C10.0151 12.2502 10.184 11.9849 10.4012 11.7197C10.7632 11.2615 11.1735 10.8274 11.6561 10.4657C12.2353 11.0445 12.9351 11.5026 13.7315 11.8161C12.8869 12.2502 12.187 12.9495 11.7526 13.7935C11.3906 14.4446 11.1976 15.1922 11.1976 15.9879V16.0121C11.1976 17.3384 10.6667 18.5441 9.84615 19.4363C9.62896 19.6775 9.38763 19.8945 9.12217 20.0874C8.25339 20.7144 7.21569 21.1002 6.05731 21.1002C5.79185 21.1002 5.52639 21.0761 5.26093 21.052C4.85068 20.1839 4.53695 19.2675 4.34389 18.3029C4.89894 18.6647 5.47813 18.8576 6.10558 18.8576ZM4.17496 15.9879C4.17496 15.9397 4.17496 15.9156 4.17496 15.8674C4.22323 14.8546 5.06787 14.0347 6.10558 14.0347C7.16742 14.0347 8.0362 14.9028 8.0362 15.9638V15.9879C8.01207 17.0249 7.16742 17.8689 6.10558 17.8689C5.04374 17.893 4.19909 17.049 4.17496 15.9879ZM11.0769 9.74228C10.5701 10.1281 10.1357 10.5863 9.74962 11.0686C8.73605 10.321 7.48115 9.86285 6.10558 9.86285C6.03318 9.86285 5.96078 9.86285 5.91252 9.86285C6.90196 8.24717 8.27753 6.87264 9.89442 5.88395C9.89442 5.95629 9.89442 6.02864 9.89442 6.10098C9.89442 7.45139 10.3288 8.70535 11.0769 9.74228ZM14.0935 8.27129C14.6003 8.72946 15.276 8.99473 16.0241 8.99473C17.279 8.99473 18.4615 9.33233 19.4751 9.91108C19.7647 10.0799 20.0302 10.2487 20.2956 10.4657C20.7783 10.8274 21.1885 11.2615 21.5505 11.7197C20.9713 12.2984 20.5128 12.9977 20.2232 13.7935C19.7888 12.9495 19.089 12.2502 18.2443 11.8161C17.5928 11.4544 16.8205 11.2615 16.0241 11.2615C14.6968 11.2615 13.4902 10.7551 12.5732 9.93519C12.3318 9.71816 12.1146 9.47702 11.8974 9.21176C11.2459 8.34363 10.8839 7.28259 10.8839 6.12509C10.8839 5.85983 10.908 5.59457 10.9321 5.35343C11.8009 4.94348 12.7179 4.62999 13.6833 4.43708C13.3454 4.91937 13.1282 5.49812 13.1282 6.12509C13.1041 6.9691 13.4902 7.74077 14.0935 8.27129ZM14.0694 6.10098C14.0694 5.06405 14.8899 4.22005 15.9035 4.17182C15.9276 4.17182 15.9759 4.17182 16 4.17182C16.0241 4.17182 16.0724 4.17182 16.0965 4.17182C17.1101 4.22005 17.9306 5.06405 17.9306 6.10098C17.9306 7.16202 17.0618 8.03014 16 8.03014C14.9382 8.03014 14.0694 7.16202 14.0694 6.10098ZM19.7888 15.9879C19.7888 18.0859 18.0995 19.7739 16 19.7739C13.9005 19.7739 12.2112 18.0859 12.2112 15.9879V15.9638C12.2353 13.89 13.9246 12.202 16 12.202C18.0754 12.202 19.7888 13.9141 19.7888 15.9879ZM1.49623 19.9668C1.15837 18.7611 0.989442 17.5072 0.965309 16.205C0.965309 16.1326 0.965309 16.0844 0.965309 16.0121V15.9638C0.965309 15.8915 0.965309 15.8433 0.965309 15.7709C1.06184 13.7212 2.34087 11.9849 4.15083 11.2374C4.53695 11.0927 4.92308 10.9721 5.35747 10.8998C5.59879 10.8515 5.86425 10.8515 6.10558 10.8515C7.26395 10.8515 8.32579 11.2374 9.19457 11.8885C8.78431 12.5637 8.47059 13.3112 8.27753 14.0829C7.74661 13.48 6.97436 13.1183 6.10558 13.1183C5.47813 13.1183 4.89894 13.3112 4.41629 13.6488C3.69231 14.1794 3.20965 15.0234 3.20965 15.9638V16.0121C3.20965 17.676 3.52338 19.2675 4.10256 20.7144C4.27149 21.1243 4.44042 21.5102 4.65762 21.896C5.86425 24.211 7.74661 26.0919 10.0392 27.2977C10.3288 28.5516 11.0287 29.6609 11.9698 30.4808C6.90196 29.0821 2.89593 25.055 1.49623 19.9668ZM20.0302 30.4808C18.8235 30.8184 17.5445 31.0113 16.2172 31.0113C16.1448 31.0113 16.0965 31.0113 16.0241 31.0113C15.9517 31.0113 15.8793 31.0113 15.8311 31.0113C13.7798 30.939 12.0181 29.6368 11.27 27.8523C11.1011 27.4665 11.0045 27.0806 10.9321 26.6466C10.8839 26.4054 10.8839 26.1402 10.8839 25.8749C10.8839 24.7174 11.27 23.6564 11.8974 22.7882C12.5732 23.1982 13.3213 23.5117 14.0935 23.7046C13.4902 24.2351 13.1282 25.0068 13.1282 25.8749C13.1282 26.5019 13.3213 27.0806 13.6833 27.5629C14.1659 28.2381 14.914 28.6963 15.7828 28.7687H15.8069C15.8793 28.7687 15.9517 28.7687 16.0241 28.7687C16.0965 28.7687 16.1689 28.7687 16.2413 28.7687H16.2655C17.8582 28.7445 19.3786 28.4069 20.7783 27.8523C21.1885 27.6835 21.5747 27.5147 21.9608 27.2977C24.2534 26.0919 26.1357 24.211 27.3424 21.9201C28.5973 21.6307 29.7074 20.9314 30.5038 19.991C29.1041 25.0791 25.098 29.0821 20.0302 30.4808ZM31.0347 15.9879C31.0347 16.0603 31.0347 16.1085 31.0347 16.1809C30.9623 18.2306 29.6591 19.9668 27.8733 20.7144C27.4872 20.8832 27.1011 20.9797 26.6667 21.052C26.4253 21.1002 26.1599 21.1002 25.8944 21.1002C24.736 21.1002 23.6742 20.7144 22.8296 20.0874C23.2398 19.4122 23.5535 18.6647 23.7466 17.893C24.2775 18.4959 25.0498 18.8576 25.9186 18.8576C26.546 18.8576 27.1252 18.6405 27.6078 18.3029C28.3318 17.7724 28.8145 16.9284 28.8145 15.9638C28.8145 14.2999 28.5008 12.6843 27.8974 11.2133C27.7285 10.8033 27.5354 10.4175 27.3424 10.0317C26.1357 7.74077 24.2534 5.85983 21.9608 4.65411C21.6712 3.40015 20.9713 2.29088 20.0302 1.47099C25.098 2.86963 29.1041 6.87265 30.5038 11.9367C30.8416 13.1424 31.0347 14.4205 31.0347 15.7468C31.0347 15.8433 31.0347 15.9156 31.0347 15.9879Z" fill="currentColor"/><path fill-rule="evenodd" clip-rule="evenodd" d="M44.248 10.172H47.4L50.344 18.22H50.392L53.304 10.172H56.472V21.5H54.472V12.396H54.44L51 21.5H49.592L46.2 12.396H46.168V21.5H44.248V10.172ZM61.9902 10.172H69.4942V11.932H64.0062V14.812H69.2062V16.508H64.0062V19.708H69.7822V21.5H61.9902V10.172ZM78.4364 15.052C78.7244 15.052 79.0124 15.0307 79.3004 14.988C79.5885 14.9453 79.8471 14.8653 80.0764 14.748C80.3058 14.6307 80.4951 14.4627 80.6444 14.244C80.7938 14.0253 80.8684 13.7453 80.8684 13.404C80.8684 13.0947 80.7991 12.8413 80.6604 12.644C80.5218 12.4467 80.3458 12.2893 80.1325 12.172C79.9191 12.0547 79.6764 11.9747 79.4044 11.932C79.1324 11.8893 78.8685 11.868 78.6124 11.868H76.7884V15.052H78.4364ZM74.7724 10.172H78.7084C79.2418 10.172 79.7591 10.228 80.2604 10.34C80.7618 10.452 81.2071 10.636 81.5964 10.892C81.9858 11.148 82.2978 11.484 82.5324 11.9C82.7671 12.316 82.8844 12.8227 82.8844 13.42C82.8844 14.2413 82.6525 14.9107 82.1884 15.428C81.7244 15.9453 81.0925 16.2947 80.2924 16.476L83.3164 21.5H80.8844L78.2604 16.7H76.7884V21.5H74.7724V10.172ZM96.0347 12.828C95.736 12.4227 95.3467 12.1267 94.8667 11.94C94.3867 11.7533 93.9173 11.66 93.4587 11.66C92.872 11.66 92.3387 11.7667 91.8587 11.98C91.3787 12.1933 90.9653 12.4867 90.6187 12.86C90.272 13.2333 90.0053 13.6707 89.8187 14.172C89.632 14.6733 89.5387 15.2173 89.5387 15.804C89.5387 16.4227 89.6293 16.988 89.8107 17.5C89.992 18.012 90.2507 18.452 90.5867 18.82C90.9227 19.188 91.3253 19.4733 91.7947 19.676C92.264 19.8787 92.792 19.98 93.3787 19.98C93.9867 19.98 94.5253 19.86 94.9947 19.62C95.464 19.38 95.8427 19.0627 96.1307 18.668L97.7467 19.804C97.2453 20.4333 96.632 20.9213 95.9067 21.268C95.1813 21.6147 94.3333 21.788 93.3627 21.788C92.4773 21.788 91.664 21.6413 90.9227 21.348C90.1813 21.0547 89.544 20.644 89.0107 20.116C88.4773 19.588 88.0613 18.9587 87.7627 18.228C87.464 17.4973 87.3147 16.6893 87.3147 15.804C87.3147 14.8973 87.472 14.0787 87.7867 13.348C88.1013 12.6173 88.5333 11.996 89.0827 11.484C89.632 10.972 90.28 10.5773 91.0267 10.3C91.7733 10.0227 92.584 9.884 93.4587 9.884C93.8213 9.884 94.2 9.91867 94.5947 9.988C94.9893 10.0573 95.368 10.164 95.7307 10.308C96.0933 10.452 96.4347 10.6307 96.7547 10.844C97.0747 11.0573 97.3467 11.3133 97.5707 11.612L96.0347 12.828ZM111.041 17.34C111.041 18.0227 110.924 18.6387 110.689 19.188C110.454 19.7373 110.134 20.204 109.729 20.588C109.324 20.972 108.844 21.268 108.289 21.476C107.734 21.684 107.132 21.788 106.481 21.788C105.83 21.788 105.228 21.684 104.673 21.476C104.118 21.268 103.636 20.972 103.225 20.588C102.814 20.204 102.494 19.7373 102.265 19.188C102.036 18.6387 101.921 18.0227 101.921 17.34V10.172H103.937V17.26C103.937 17.5907 103.98 17.9187 104.065 18.244C104.15 18.5693 104.292 18.86 104.489 19.116C104.686 19.372 104.948 19.58 105.273 19.74C105.598 19.9 106.001 19.98 106.481 19.98C106.961 19.98 107.364 19.9 107.689 19.74C108.014 19.58 108.276 19.372 108.473 19.116C108.67 18.86 108.812 18.5693 108.897 18.244C108.982 17.9187 109.025 17.5907 109.025 17.26V10.172H111.041V17.34ZM120.127 15.052C120.415 15.052 120.703 15.0307 120.991 14.988C121.279 14.9453 121.538 14.8653 121.767 14.748C121.996 14.6307 122.186 14.4627 122.335 14.244C122.484 14.0253 122.559 13.7453 122.559 13.404C122.559 13.0947 122.49 12.8413 122.351 12.644C122.212 12.4467 122.036 12.2893 121.823 12.172C121.61 12.0547 121.367 11.9747 121.095 11.932C120.823 11.8893 120.559 11.868 120.303 11.868H118.479V15.052H120.127ZM116.463 10.172H120.399C120.932 10.172 121.45 10.228 121.951 10.34C122.452 10.452 122.898 10.636 123.287 10.892C123.676 11.148 123.988 11.484 124.223 11.9C124.458 12.316 124.575 12.8227 124.575 13.42C124.575 14.2413 124.343 14.9107 123.879 15.428C123.415 15.9453 122.783 16.2947 121.983 16.476L125.007 21.5H122.575L119.951 16.7H118.479V21.5H116.463V10.172ZM132.173 16.588L127.917 10.172H130.381L133.229 14.94L136.109 10.172H138.445L134.189 16.588V21.5H132.173V16.588Z" fill="currentColor"/></svg>